<mxfile host="65bd71144e" modified="2020-11-16T20:51:45.323Z" agent="5.0 (Windows NT 10.0; Win64; x64) AppleWebKit/537.36 (KHTML, like Gecko) Code/1.51.1 Chrome/83.0.4103.122 Electron/9.3.3 Safari/537.36" version="13.6.5" etag="c3MbkDnWRqm6z5geag1d">
    <diagram id="huSsZAbNyIrHfTS5jbmq" name="Page-1">
        <mxGraphModel dx="1597" dy="3329" grid="1" gridSize="10" guides="1" tooltips="1" connect="1" arrows="1" fold="1" page="1" pageScale="1" pageWidth="850" pageHeight="1100" math="0" shadow="0">
            <root>
                <mxCell id="0"/>
                <mxCell id="1" parent="0"/>
                <mxCell id="3" value="" style="strokeWidth=1;shadow=0;dashed=0;align=center;html=1;shape=mxgraph.mockup.containers.browserWindow;rSize=0;strokeColor=#666666;strokeColor2=#008cff;strokeColor3=#c4c4c4;mainText=,;recursiveResize=0;" vertex="1" parent="1">
                    <mxGeometry y="-2200" width="850" height="1120" as="geometry"/>
                </mxCell>
                <mxCell id="4" value="&lt;font color=&quot;#ffffff&quot;&gt;HOMEPAGE&lt;/font&gt;" style="strokeWidth=1;shadow=0;dashed=0;align=center;html=1;shape=mxgraph.mockup.containers.anchor;fontSize=17;fontColor=#666666;align=left;" vertex="1" parent="3">
                    <mxGeometry x="60" y="12" width="110" height="26" as="geometry"/>
                </mxCell>
                <mxCell id="5" value="https://www.draw.io" style="strokeWidth=1;shadow=0;dashed=0;align=center;html=1;shape=mxgraph.mockup.containers.anchor;rSize=0;fontSize=17;fontColor=#666666;align=left;" vertex="1" parent="3">
                    <mxGeometry x="130" y="60" width="250" height="26" as="geometry"/>
                </mxCell>
                <mxCell id="19" value="Today" style="html=1;shadow=0;dashed=0;shape=mxgraph.bootstrap.rrect;rSize=5;fillColor=#0085FC;strokeColor=none;fontSize=14;fontColor=#ffffff;" vertex="1" parent="3">
                    <mxGeometry x="580" y="110" width="70" height="40" as="geometry"/>
                </mxCell>
                <mxCell id="20" value="Previous" style="fillColor=none;strokeColor=none;fontSize=14;fontColor=#0085FC;" vertex="1" parent="3">
                    <mxGeometry x="650" y="110" width="60" height="40" as="geometry"/>
                </mxCell>
                <mxCell id="21" value="Data" style="fillColor=none;strokeColor=none;fontSize=14;fontColor=#0085FC;" vertex="1" parent="3">
                    <mxGeometry x="710" y="110" width="60" height="40" as="geometry"/>
                </mxCell>
                <mxCell id="22" value="Login" style="fillColor=none;strokeColor=none;fontSize=14;fontColor=#7D868C;" vertex="1" parent="3">
                    <mxGeometry x="770" y="110" width="80" height="40" as="geometry"/>
                </mxCell>
                <mxCell id="23" value="&lt;font color=&quot;#000000&quot; style=&quot;background-color: rgb(255 , 255 , 255) ; font-size: 22px&quot;&gt;HEADING&lt;/font&gt;" style="whiteSpace=wrap;html=1;shadow=0;dashed=0;fontSize=10;align=left;strokeColor=#33B5E5;fontColor=#B3B3B3;fillColor=#FFFFFF;" vertex="1" parent="3">
                    <mxGeometry x="1.2" y="110" width="578.8" height="40" as="geometry"/>
                </mxCell>
                <mxCell id="93" value="&lt;table border=&quot;1&quot; width=&quot;100%&quot; cellpadding=&quot;4&quot; style=&quot;width: 100% ; height: 100% ; border-collapse: collapse&quot;&gt;&lt;tbody&gt;&lt;tr style=&quot;background-color: #a7c942 ; color: #ffffff ; border: 1px solid #98bf21&quot;&gt;&lt;th align=&quot;left&quot;&gt;First Goal&lt;/th&gt;&lt;th align=&quot;left&quot;&gt;Second Goal&lt;/th&gt;&lt;th align=&quot;left&quot;&gt;Third Goal&lt;/th&gt;&lt;/tr&gt;&lt;tr style=&quot;border: 1px solid #98bf21&quot;&gt;&lt;td&gt;Value 1&lt;/td&gt;&lt;td&gt;Value 2&lt;/td&gt;&lt;td&gt;Value 3&lt;/td&gt;&lt;/tr&gt;&lt;tr style=&quot;background-color: #eaf2d3 ; border: 1px solid #98bf21&quot;&gt;&lt;td&gt;Value 4&lt;/td&gt;&lt;td&gt;Value 5&lt;/td&gt;&lt;td&gt;Value 6&lt;/td&gt;&lt;/tr&gt;&lt;tr style=&quot;border: 1px solid #98bf21&quot;&gt;&lt;td&gt;Value 7&lt;/td&gt;&lt;td&gt;Value 8&lt;/td&gt;&lt;td&gt;Value 9&lt;/td&gt;&lt;/tr&gt;&lt;tr style=&quot;background-color: #eaf2d3 ; border: 1px solid #98bf21&quot;&gt;&lt;td&gt;Value 10&lt;/td&gt;&lt;td&gt;Value 11&lt;/td&gt;&lt;td&gt;Value 12&lt;/td&gt;&lt;/tr&gt;&lt;/tbody&gt;&lt;/table&gt;" style="text;html=1;strokeColor=#c0c0c0;fillColor=#ffffff;overflow=fill;rounded=0;labelBackgroundColor=#ffffff;" vertex="1" parent="3">
                    <mxGeometry x="110" y="170" width="630" height="260" as="geometry"/>
                </mxCell>
                <mxCell id="94" value="What is your First Goal" style="html=1;shadow=0;dashed=0;shape=mxgraph.bootstrap.rrect;rSize=5;strokeColor=#CED4DA;html=1;whiteSpace=wrap;fillColor=#FFFFFF;fontColor=#7D868C;align=left;spacing=15;fontSize=14;labelBackgroundColor=#ffffff;" vertex="1" parent="3">
                    <mxGeometry x="25" y="480" width="800" height="40" as="geometry"/>
                </mxCell>
                <mxCell id="95" value="" style="shape=triangle;direction=south;fillColor=#343A40;strokeColor=none;perimeter=none;" vertex="1" parent="94">
                    <mxGeometry x="1" y="0.5" width="7" height="3" relative="1" as="geometry">
                        <mxPoint x="-97" y="1" as="offset"/>
                    </mxGeometry>
                </mxCell>
                <mxCell id="96" value="" style="shape=triangle;direction=north;fillColor=#343A40;strokeColor=none;perimeter=none;" vertex="1" parent="94">
                    <mxGeometry x="1" y="0.5" width="7" height="3" relative="1" as="geometry">
                        <mxPoint x="-97" y="-4" as="offset"/>
                    </mxGeometry>
                </mxCell>
                <mxCell id="97" value="Submit" style="html=1;shadow=0;dashed=0;shape=mxgraph.bootstrap.rightButton;strokeColor=#6C757D;gradientColor=inherit;fontColor=inherit;fillColor=#ffffff;rSize=5;perimeter=none;whiteSpace=wrap;resizeHeight=1;fontSize=14;align=left;spacing=15;" vertex="1" parent="94">
                    <mxGeometry x="1" width="80" height="40" relative="1" as="geometry">
                        <mxPoint x="-80" as="offset"/>
                    </mxGeometry>
                </mxCell>
                <mxCell id="98" value="What is your Second Goal" style="html=1;shadow=0;dashed=0;shape=mxgraph.bootstrap.rrect;rSize=5;strokeColor=#CED4DA;html=1;whiteSpace=wrap;fillColor=#FFFFFF;fontColor=#7D868C;align=left;spacing=15;fontSize=14;labelBackgroundColor=#ffffff;" vertex="1" parent="3">
                    <mxGeometry x="25" y="560" width="800" height="40" as="geometry"/>
                </mxCell>
                <mxCell id="99" value="" style="shape=triangle;direction=south;fillColor=#343A40;strokeColor=none;perimeter=none;" vertex="1" parent="98">
                    <mxGeometry x="1" y="0.5" width="7" height="3" relative="1" as="geometry">
                        <mxPoint x="-97" y="1" as="offset"/>
                    </mxGeometry>
                </mxCell>
                <mxCell id="100" value="" style="shape=triangle;direction=north;fillColor=#343A40;strokeColor=none;perimeter=none;" vertex="1" parent="98">
                    <mxGeometry x="1" y="0.5" width="7" height="3" relative="1" as="geometry">
                        <mxPoint x="-97" y="-4" as="offset"/>
                    </mxGeometry>
                </mxCell>
                <mxCell id="101" value="Submit" style="html=1;shadow=0;dashed=0;shape=mxgraph.bootstrap.rightButton;strokeColor=#6C757D;gradientColor=inherit;fontColor=inherit;fillColor=#ffffff;rSize=5;perimeter=none;whiteSpace=wrap;resizeHeight=1;fontSize=14;align=left;spacing=15;" vertex="1" parent="98">
                    <mxGeometry x="1" width="80" height="40" relative="1" as="geometry">
                        <mxPoint x="-80" as="offset"/>
                    </mxGeometry>
                </mxCell>
                <mxCell id="102" value="What is your Third Goal" style="html=1;shadow=0;dashed=0;shape=mxgraph.bootstrap.rrect;rSize=5;strokeColor=#CED4DA;html=1;whiteSpace=wrap;fillColor=#FFFFFF;fontColor=#7D868C;align=left;spacing=15;fontSize=14;labelBackgroundColor=#ffffff;" vertex="1" parent="3">
                    <mxGeometry x="25" y="640" width="800" height="40" as="geometry"/>
                </mxCell>
                <mxCell id="103" value="" style="shape=triangle;direction=south;fillColor=#343A40;strokeColor=none;perimeter=none;" vertex="1" parent="102">
                    <mxGeometry x="1" y="0.5" width="7" height="3" relative="1" as="geometry">
                        <mxPoint x="-97" y="1" as="offset"/>
                    </mxGeometry>
                </mxCell>
                <mxCell id="104" value="" style="shape=triangle;direction=north;fillColor=#343A40;strokeColor=none;perimeter=none;" vertex="1" parent="102">
                    <mxGeometry x="1" y="0.5" width="7" height="3" relative="1" as="geometry">
                        <mxPoint x="-97" y="-4" as="offset"/>
                    </mxGeometry>
                </mxCell>
                <mxCell id="105" value="Submit" style="html=1;shadow=0;dashed=0;shape=mxgraph.bootstrap.rightButton;strokeColor=#6C757D;gradientColor=inherit;fontColor=inherit;fillColor=#ffffff;rSize=5;perimeter=none;whiteSpace=wrap;resizeHeight=1;fontSize=14;align=left;spacing=15;" vertex="1" parent="102">
                    <mxGeometry x="1" width="80" height="40" relative="1" as="geometry">
                        <mxPoint x="-80" as="offset"/>
                    </mxGeometry>
                </mxCell>
                <mxCell id="179" value="" style="image;html=1;image=img/lib/clip_art/finance/Graph_128x128.png;labelBackgroundColor=#ffffff;" vertex="1" parent="3">
                    <mxGeometry x="80" y="710" width="690" height="400" as="geometry"/>
                </mxCell>
            </root>
        </mxGraphModel>
    </diagram>
</mxfile>